<svg id="Layer_1" data-name="Layer 1" xmlns="http://www.w3.org/2000/svg" viewBox="0 0 762.9695 763.0946"><defs><style>.cls-1{fill:#5ec5d0;}.cls-2{fill:#2a7d66;}</style></defs><path class="cls-1" d="M762.568,385.8a45.145,45.145,0,0,0-2.0333-9.34,33.5347,33.5347,0,0,1-.8789-3.6865c-2.8837-13.53-5.6059-27.0937-8.6939-40.5717a60.06,60.06,0,0,0-8.3281-19.2739,37.0144,37.0144,0,0,0-15.3213-13.7725,64.1844,64.1844,0,0,1-15.8106-10.732c-3.4348-3.1165-7.3922-5.1356-12.238-4.7507-5.3066.418-8.4231,4.518-7.2687,9.7058a10.7506,10.7506,0,0,0,5.6487,7.5537,75.7006,75.7006,0,0,0,11.43,4.49A28.3627,28.3627,0,0,1,724.6711,316.33a27.137,27.137,0,0,1-3.5536,35.6356,31.4915,31.4915,0,0,1-14.3426,7.4777,13.0651,13.0651,0,0,0-9.53,8.7034,15.6321,15.6321,0,0,1-1.2114,2.2994,5.8866,5.8866,0,0,1-5.929,3.0642,15.2142,15.2142,0,0,1-12.29-6.9741c-4.2-5.9813-6.005-12.9364-7.2639-19.901-2.2756-12.58-3.8434-25.2931-5.9-37.916-1.2732-7.815-2.9977-15.554-7.0977-22.4949-2.4228-4.0951-5.4871-7.5728-10.1144-9.2641-7.8387-2.8694-11.6109.1759-10.6227,8.49,1.0927,9.2023,4.4847,17.5684,9.2355,25.431,5.2686,8.7223,10.0622,17.5874,10.2094,28.1721.0951,6.8126,3.1023,12.3995,7.264,17.6111,4.38,5.4871,8.4516,11.2261,12.6893,16.8321,3.2258,4.2757,6.4183,8.5845,9.7866,12.751,2.3944,2.96,5.6962,3.5345,9.264,2.6414,1.8339-.4608,3.6344-1.0784,5.4207-1.72,3.1735-1.14,6.3613-1.9525,9.7438-1.0166,2.8267.7839,4.1665,2.8885,3.0548,5.5964a47.5067,47.5067,0,0,1-4.1522,7.6725c-3.1688,4.8933-6.8934,9.3638-9.06,14.9364-7.9861,20.552-16.1859,41.023-24.362,61.4989C669.7,491.42,663.59,507.0211,657.096,522.4611c-5.4587,12.9792-11.7155,25.6209-19.8583,37.1511-3.9764,5.63-6.8744,11.2547-6.062,18.39.2851,2.5036-1.2494,4.5607-3.34,5.9243-3.0357,1.9857-6.233,3.72-9.2592,5.72-3.9669,2.6176-4.86,5.2923-3.24,9.7676a48.5189,48.5189,0,0,0,2.879,5.9669c1.8338,3.4776,1.5155,5.8055-1.848,7.91a57.5638,57.5638,0,0,1-8.7415,4.1521c-4.2282,1.7341-8.7319,2.898-12.7606,4.9932-6.2662,3.25-10.675,8.8174-15.611,13.7107-4.9266,4.8886-9.8247,9.8483-15.1265,14.3046-4.5085,3.7816-10.1714,4.0144-13.9483.4561a45.0871,45.0871,0,0,1-8.9077-11.2071c-5.0691-9.5064-5.9005-20.2289-7.7105-30.6662-1.468-8.466-3.4633-16.8416-5.2449-25.2552-1.53-7.2545-3.6771-14.4377-4.48-21.7682-.96-8.7271,2.0286-17.0029,4.95-25.16,2.7745-7.7342,5.5965-15.4543,8.0194-23.3026a20.5945,20.5945,0,0,0-2.4182-17.7964c-4.01-6.1427-8.5514-11.9339-12.7891-17.9294-3.9336-5.5726-4.803-5.1973.0238-11.0551,1.0927-1.3253,2.6652-2.85,1.24-4.58-1.4822-1.81-3.1925-.2755-4.6605.5036-2.8932,1.53-4.2187,1.33-4.7935-1.9a48.024,48.024,0,0,1-.3516-11.24c.2328-3.8482,1.3017-7.6439,1.4965-11.4921.247-4.879-2.4751-7.72-7.34-8.1475-2.8315-.2471-5.682-.2994-8.5229-.3468-8.1951-.1378-8.7082-.5655-9.8674-8.6751-1.0357-7.2164-5.5489-11.1832-12.5611-10.789a25.8726,25.8726,0,0,0-7.4492,1.2448c-7.9148,2.9407-15.7393,6.1189-23.5544,9.3116-7.82,3.1924-15.5018,6.7223-23.3976,9.7105-7.2971,2.76-14.6324,2.1853-21.0934-2.3137a92.0847,92.0847,0,0,1-12.6038-10.6607c-8.7557-8.8127-16.8035-18.2429-22.9463-29.1413a54.2425,54.2425,0,0,1-6.3518-16.7654c-1.52-8.2712-.1473-16.2,3.0025-23.9012,3.2068-7.834,3.2733-15.4638-1.0832-23.0176A16.4121,16.4121,0,0,1,359.64,310.79a44.4589,44.4589,0,0,1,13.7725-20.3714c5.5014-4.6225,11.1976-9.0122,16.77-13.5539,6.0382-4.9218,11.6964-10.2285,15.1027-17.4021,2.0048-4.2092,3.7721-8.5372,5.4681-12.8794,2.7887-7.1309,7.9623-11.5254,15.0743-14.0576,7.7532-2.76,15.8153-3.7864,23.9011-4.7412q19.4331-2.2947,38.8756-4.4943c6.4374-.7363,12.87-1.563,19.331-2.0808,3.6913-.2993,5.7532,1.3017,6.9741,4.7935a31.0207,31.0207,0,0,1,1.1735,4.5941,10.6714,10.6714,0,0,0,6.9456,8.3613,33.0171,33.0171,0,0,0,6.7984,2.0428c8.4326,1.4253,15.478,5.0644,21.0174,11.7534a142.7147,142.7147,0,0,0,11.0788,11.668c2.7555,2.6509,5.986,2.96,8.732,1.43a6.884,6.884,0,0,0,3.6818-5.9813c.1663-3.7151.0523-7.4349.1283-11.1548.0855-4.0144,1.3777-4.95,5.2116-3.8766a5.9923,5.9923,0,0,1,1.5535.5558c4.366,2.67,8.7652,5.2876,13.0409,8.0953,3.72,2.4419,7.3779,5.1783,11.9149,5.52,6.6131.4988,12.6276,2.6985,18.5518,5.4112,4.556,2.0855,9.2023,3.7436,14.39,3.3255,5.4064-.4371,8.0716-3.7436,6.8364-8.9647-.3753-1.6057-.96-3.1688-1.487-4.7366-1.7483-5.2306-3.6391-10.4089-5.2258-15.6823-1.4538-4.841-4.0192-7.0074-9.05-7.0263-3.7959-.0143-7.6107.1948-11.3876-.0618-5.24-.3611-10.371-1.3682-14.8177-4.4562-2.6747-1.8529-3.3588-3.9574-2.4181-6.979.9454-3.0214,3.25-4.4039,6.1332-4.879,5.7912-.9549,11.2641.9312,16.8415,1.9858,6.2758,1.1925,12.5611,2.727,18.8986,3.0691,8.1144.4418,12.6561-4.423,12.7084-12.5706a34.5232,34.5232,0,0,0-7.6725-21.7206c-3.4539-4.48-7.4683-8.1808-13.1122-9.644-5.7484-1.4871-7.473.0427-6.8363,5.9717a58.676,58.676,0,0,1,.6841,7.5347c-.0238,1.088-.9407,2.7887-1.81,3.0547-.9311.2851-2.39-.6223-3.3968-1.3254a5.0622,5.0622,0,0,1-1.24-2.2424c-.9645-2.3374-1.8481-4.7128-2.8125-7.05a6.7444,6.7444,0,0,0-4.5038-4.2187c-3.7721-1.0595-8.8316.5036-10.9648,3.3968-2.0428,2.7744-1.696,5.6487,1.1783,9.8056a6.9736,6.9736,0,0,1,.8456,1.1354,15.9,15.9,0,0,1,1.3682,3.7389c1.0024,7.0929-5.53,13.63-12.8128,12.9934a52.4544,52.4544,0,0,0-6.6321-.2518c-4.157.1757-5.8863,2.09-5.6155,6.2045.1331,2.038.6794,4.0524.8837,6.0905.1425,1.43.5843,3.4206-1.563,3.5631-1.8576.1187-1.9478-1.71-2.0761-3.15-.1663-1.81-.2756-3.63-.5083-5.4349-.2186-1.7245-.3706-3.6534-2.3564-4.3137-2.0856-.6889-3.1308.9929-4.2662,2.2994-.2091.2375-.39.4988-.5986.7363-1.7578,1.9289-3.4443,2.1569-5.3256.3088a24.183,24.183,0,0,1-3.3541-4.5464c-1.2067-1.9384-2.0381-4.1332-3.3873-5.9575-3.4776-4.7032-6.58-4.38-9.207.77-.1473.285-.2993.5606-.4513.8361-1.9336,3.5109-3.2923,4.176-7.131,3.1593a10.4594,10.4594,0,0,1-4.0856-1.772,66.5945,66.5945,0,0,1-8.3852-7.9671c-5.3256-6.4468-11.0265-12.3615-18.3285-16.6229a25.801,25.801,0,0,0-19.4021-2.9645c-7.1975,1.6152-13.2737,5.3684-19.0792,9.7153-6.233,4.6653-11.036,10.2522-13.0551,18.0292a18.8214,18.8214,0,0,1-3.4681,6.6511c-3.468,4.3992-8.5656,5.5014-13.81,5.6249-4.58.1045-9.1642-.266-13.7487-.4133-8.8888-.285-15.288-4.6083-19.4165-12.3-3.7483-6.9883-2.9977-13.8627,1.2067-20.4568,4.4847-7.0359,15.2263-13.2642,25.1506-8.7034a64.3075,64.3075,0,0,0,7.6963,3.0975,18.1279,18.1279,0,0,0,6.2473.9786c4.8125-.285,7.0692-4.936,4.4467-8.9029a24.7429,24.7429,0,0,0-3.4016-3.929c-2.6556-2.5986-5.4538-5.05-8.11-7.6487-6.9694-6.8269-6.4706-15.9959,1.7673-21.1172a49.0914,49.0914,0,0,1,14.4518-5.6677c10.3-2.4371,20.7942-4.0619,31.1461-6.2853a44.4972,44.4972,0,0,0,17.7062-7.663c2.803-2.1141,3.1213-4.6747.7649-7.2829a12.77,12.77,0,0,0-9.5111-4.6653c-1.8195-.0238-3.6486.0143-5.4539-.171-3.6343-.3753-7.34-.7363-9.5776-4.2567-2.2518-3.5441-1.6865-8.0906,1.4585-12.1192,3.0263-3.8719,7.3923-5.4919,11.81-7.074,6.537-2.3325,13.0218-4.8172,19.5589-7.14,4.2282-1.5012,8.4232-3.3493,12.7891-4.1189,8.1666-1.44,15.8154,1.202,23.2076,4.3707,8.6369,3.7056,17.117,7.7818,25.7967,11.3829,6.0192,2.4989,12.3378,3.9954,18.9746,3.221,1.8576-.2138,2.2947.7791,1.8433,2.2994a11.1647,11.1647,0,0,1-1.2637,2.5322c-1.2779,2.09-2.7079,4.0856-3.8814,6.2282-1.5535,2.841-1.1449,4.3043,1.3873,6.366a13.1739,13.1739,0,0,0,10.7367,2.6558c5.5442-.85,11.0408-2.0049,16.5375-3.1213,7.2354-1.468,13.7535-.3563,19.5067,4.6225a51.2665,51.2665,0,0,0,7.6487,5.1641,13.6891,13.6891,0,0,0,9.0835,2.0191c.1853-.019.3706-.0476.5606-.076A375.6251,375.6251,0,0,0,587.35,60.1534C526.8534,21.5865,460.6655,1.3957,388.9525.07Q274.6273-2.0392,177.6331,58.97a358.2454,358.2454,0,0,0-61.7886,48.9568l-.0143.0142q-9.3567,9.2853-18.0767,19.3452a3.6736,3.6736,0,0,0,1.0214-.3279c5.0263-3.4062,10.1809-6.6463,15.0172-10.3044,7.5585-5.71,14.8177-11.8247,22.3952-17.5113a22.8494,22.8494,0,0,1,7.302-3.1831c2.2946-.67,4.8552.8742,5.8814,3.0263,1.0879,2.2946.0048,4.0192-1.7055,5.3779-5.6914,4.5322-11.3259,9.1357-17.1836,13.44a273.3761,273.3761,0,0,1-32.8374,20.3191c-3.7293,2-4.8885,4.784-3.6866,8.2188a7.3243,7.3243,0,0,0,8.6654,4.8744c1.3113-.2661,2.5845-.7269,3.8862-1.0642,3.3445-.8694,5.1688.8361,4.2472,4.195-.5178,1.8812-1.6105,3.601-2.29,5.4491a17.4212,17.4212,0,0,0-1.3159,4.9455,3.2,3.2,0,0,0,1.8052,2.38c.5986.228,1.9764-.5463,2.4467-1.2494a28.8056,28.8056,0,0,0,2.0713-4.49c2.3992-5.4776,4.2757-11.2689,7.2972-16.3806,5.853-9.9054,13.611-17.9817,24.7421-22.2052a16.7775,16.7775,0,0,0,7.8768-5.4919,35.3578,35.3578,0,0,1,3.9859-4.67c2.19-2.0761,4.6225-3.91,7.81-4.0715,2.4466-.1235,3.6675,1.0927,3.71,3.53.0238,1.4205-.076,2.8457-.1188,4.2662-.0665,2.2044,1.1355,3.354,3.1973,3.1688a15.0636,15.0636,0,0,0,5.4349-1.3112c3.4443-1.7484,6.6606-3.9337,10.0479-5.8055,1.354-.7506,2.9693-1.4965,4.38-.0855,1.3588,1.3587,1.1925,3.0548.48,4.651-.8077,1.7958-1.8148,3.5013-2.6557,5.2876-1.0072,2.1284-1.4348,4.4705.5321,6.1142a13.1475,13.1475,0,0,0,4.898,2.0714c2.1854.6081,4.5465.6651,6.6559,1.4395,2.3469.86,2.5891,2.3706.8123,4.1854a34.5931,34.5931,0,0,1-12.1049,8.5467c-4.5655,1.7721-9.2831,3.202-13.7155,5.2591a19.8757,19.8757,0,0,0-6.4469,4.9788c-2.3326,2.7032-1.6675,4.7176,1.5488,6.7367a4.589,4.589,0,0,0,.67-.5892c3.5488-4.5512,8.9742-5.8434,13.9625-5.872a76.4894,76.4894,0,0,0,12.3853-.7648,6.8871,6.8871,0,0,1,3.8148.8314c1.5488.7458,1.7769,1.9811.2281,3.0975a33.4354,33.4354,0,0,1-3.3873,2.1853c-4.328,2.3992-8.48,5.2924-13.0789,6.9789-5.33,1.9526-10.4375.7174-14.3331-3.9194a2.5792,2.5792,0,0,0-1.9716-.8171c-5.5251.8171-10.76-.6319-15.7916-2.4181-4.2994-1.53-8.11-.803-11.8817,1.0024-3.2115,1.5392-4.9455,7.0549-3.259,10.2141.8884-.66,1.753-1.2922,2.6129-1.9383a60.0059,60.0059,0,0,1,5.3257-3.8861,3.1243,3.1243,0,0,1,2.76.1473c.4988.3325.5225,1.6247.475,2.4751-.0665,1.1734-.5226,2.3232-.5938,3.4918-.1663,2.746.9311,4.0192,3.6486,4.1523a28.418,28.418,0,0,0,4.4847-.2518c4.5988-.5227,6.5893,1.8908,5.1119,6.28a8.075,8.075,0,0,1-.7934,1.72,21.3309,21.3309,0,0,1-17.1076,10.49c-4.58.3326-7.891-1.3159-6.2853-6.8173a1.0824,1.0824,0,0,0,.0855-.4608c-.342-1.5393-.2565-3.4443-1.1592-4.5228a4.1047,4.1047,0,0,0-5.4538-.6889c-2.48,1.63-5.2544,3.2544-6.9172,5.587-4.3422,6.09-8.2188,12.5135-12.1382,18.8938-2.8885,4.7033-6.0335,9.15-11.05,11.7582-3.0073,1.563-6.2758,2.6177-9.3163,4.1237a36.3509,36.3509,0,0,0-6.8364,4.1284c-4.39,3.5584-5.52,8.1571-3.2305,13.383,1.4965,3.411.7649,6.1332-2.0571,8.4278a20.73,20.73,0,0,1-2.19,1.8054c-4.7555,2.8694-8.01,6.9978-10.6607,11.82a46.0565,46.0565,0,0,1-6.2236,8.8745c-3.7673,4.1047-9.188,4.7271-14.3378,5.4824-5.8767.8647-9.6868,3.8767-11.4494,9.5586-.5036,1.6152-1.259,3.1545-1.9,4.727-.3658.2-.7316.4039-1.1022.6034a14.2551,14.2551,0,0,0-1.4015-2.4562c-2.9692-3.44-5.5964-3.6438-8.7651-.3563a38.9344,38.9344,0,0,0-5.63,7.25A81.4017,81.4017,0,0,0,6.8616,326.1685c-.8836,6.8648-1.1829,13.7439,1.0072,20.4521,1.4442,4.4182,3.9859,4.8458,7.1214,1.2827a22.6628,22.6628,0,0,0,5.2021-10.238,17.95,17.95,0,0,1,6.3423-10.0526c1.905-1.582,3.6723-1.2067,4.1094,1.1639a27.3283,27.3283,0,0,1,.3611,9.0835A97.4254,97.4254,0,0,1,27.77,349.9746c-1.6818,5.7152-1.0785,8.8127,2.8409,11.3258,3.5109,2.2567,4.689,5.6107,5.1736,9.3971a43.7877,43.7877,0,0,1,.1948,4.7413,44.5049,44.5049,0,0,0,3.8482,17.231c.9739,2.2091,1.6057,2.3659,3.7056,1.3018a17.6857,17.6857,0,0,1,3.7578-1.392,17.4881,17.4881,0,0,1,3.7579-.4656c5.0311-.1473,9.4018-1.563,12.7938-5.6249,3.4111-4.0856,7.8578-5.3731,13.0409-3.9337,2.4372.6746,4.8886,1.3017,7.3352,1.9479,13.0219,3.4443,24.3,9.2593,31.1081,21.7348a19.0489,19.0489,0,0,0,11.6014,9.2545q6.0146,1.76,12.1478,3.0975c5.1118,1.1116,10.3614,1.9906,14.58,5.2876,6.7794,5.2972,9.9766,12.7321,11.15,21.008.7316,5.1451-1.1164,9.226-6.1618,11.6536a43.0253,43.0253,0,0,0-7.5014,4.9171c-.7269.5606-.7982,1.9763-1.1687,3.0025,1.1782.1282,2.47.6223,3.5013.29,1.1164-.3659,2.0048-1.4727,2.955-2.2946.6556-.57,1.2019-1.2685,1.8765-1.8006,2.898-2.2851,4.9456-1.601,5.3684,2.0572.3943,3.392,2.2614,5.278,5.2354,6.3279a13.66,13.66,0,0,0,4.1189.95c3.5536.0761,7.1262-.3326,10.6608-.0665,2.2851.1662,4.9692.5939,6.6748,1.9287,3.7674,2.9409,7.7533,3.2544,12.1,2.5037,3.3446-.58,6.6654-1.3111,10.0194-1.82,3.63-.5464,6.8412.1093,9.35,3.2162a27.674,27.674,0,0,0,5.0216,4.6606c4.5608,3.3968,9.3543,6.49,13.8533,9.9671,7.0406,5.4492,10.3472,12.7939,4.2044,21.9106-.2612.3944-.5368.7839-.7791,1.1877a96.444,96.444,0,0,0-13.24,43.3366,202.98,202.98,0,0,1-2.47,21.388c-1.1735,6.6369-4.613,12.1953-10.9648,15.1978a45.6928,45.6928,0,0,1-9.4541,3.0168c-8.7509,1.9715-13.4922,7.43-14.5516,16.19-.7126,5.8863-1.1449,11.8058-1.9336,17.6824-.5606,4.2-1.905,8.1572-5.1641,11.1786a4.0516,4.0516,0,0,1-4.7555.9835,32.61,32.61,0,0,0-4.6558-1.7578c-.9786-.2566-2.6984-.4323-2.9882.0333a4.4372,4.4372,0,0,0-.1948,3.316,11.2005,11.2005,0,0,0,2.0428,3.1593c.8647,1.1211,1.8814,2.1283,2.7555,3.25,1.14,1.4537.8171,2.4752-1.05,2.8553-2.3232.47-4.6605.874-6.9789,1.3681a6.9769,6.9769,0,0,0-5.5632,5.2592c-2.1473,7.81-1.0642,15.1834,4.9313,20.8084,4.0334,3.7816,9.0028,6.5893,13.6728,9.6583,4.39,2.8837,8.6891,5.7817,11.2736,10.5752,1.43,2.6557.8931,3.8006-2.1569,3.7246-3.9954-.1-7.9528-.8218-11.2451-3.2115a190.1837,190.1837,0,0,1-15.9578-12.257,241.6861,241.6861,0,0,1-18.6136-18.566,162.3226,162.3226,0,0,1-22.9177-33.6117,175.3427,175.3427,0,0,1-12.0195-28.8326c-2.47-8.005-4.5845-16.1146-7.0027-24.134A65.5245,65.5245,0,0,0,88.9931,556.7c-4.575-4.6891-9.036-9.5158-13.269-14.5136-5.4586-6.442-8.4184-14.2713-11.1833-22.0959-4.0762-11.5492-8.68-22.69-17.1741-31.9015-2.7744-3.0167-4.7555-6.841-6.7271-10.4945-1.791-3.3112-1.0024-6.594,1.316-9.5063,1.1782-1.4822,2.4752-2.8931,3.5251-4.4609,1.8813-2.803,1.6865-4.347-.8267-6.5988a8.4209,8.4209,0,0,1-2.5749-9.0409,47.1567,47.1567,0,0,1,1.5678-5.2209c3.4253-8.8034,3.6771-17.9058,2.5511-27.1175a6.0718,6.0718,0,0,0-1.7577-3.43,78,78,0,0,1-17.9152-25.1079c-1.8623-4.0951-3.4776-8.3424-5.777-12.1809-1.3444-2.252-3.5108-4.6179-5.8529-5.5253a7.5444,7.5444,0,0,1-5.0216-5.5726c-.1711-.6081-.3991-1.1972-.6176-1.7911-1.1117-3.0025-2.2234-5.9954-3.44-9.2687-1.1212.85-1.7768,1.658-2.6034,1.91a3.0971,3.0971,0,0,0-2.3421,2.2994,8.471,8.471,0,0,0-.2566,1.867,399.5479,399.5479,0,0,0,.6984,54.539A380.9448,380.9448,0,0,0,347.2169,761.5583a389.36,389.36,0,0,0,72.7582-.342,379.2061,379.2061,0,0,0,168.7714-59.1946A381.0671,381.0671,0,0,0,762.2022,408.2191C762.7248,400.7319,763.4232,393.2257,762.568,385.8Z"/><path class="cls-1" d="M676.0122,191.1021c1.5424,2.2539,3.2508,4.1261,4.2191,6.3244,1.1955,2.7142.5041,5.3952-1.5454,7.69-1.7757,1.988-1.7991,2.9967.3428,4.454a58.4892,58.4892,0,0,0,8.4017,4.8048c4.0611,1.8676,8.0441,3.7641,10.8337,7.4114a12.6518,12.6518,0,0,1,1.9762,3.4719c1.1279,3.2939.683,4.0847-2.5435,5.3357-2.252.8732-2.8816,2.1041-1.7,4.1822a21.716,21.716,0,0,0,3.2854,3.9843c1.9553,2.0619,2.6093,4.2126,1.6548,5.9407a5.9627,5.9627,0,0,1-5.9855,2.51c-7.2186-1.23-14.5845-10.5121-14.1073-17.7764.0622-.947.1068-1.8955.1881-2.8408a11.0551,11.0551,0,0,0-4.8061-10.66c-5.6907-4.1251-9.7035-9.5107-11.0667-16.5412-.6741-3.4766-.5545-6.948,1.5072-10.0606a6.2748,6.2748,0,0,1,8.0776-2.4465C677.663,188.1742,677.9,189.4333,676.0122,191.1021Z"/><path class="cls-2" d="M660.431,121.7852a13.6891,13.6891,0,0,1-9.0835-2.0191,51.2665,51.2665,0,0,1-7.6487-5.1641c-5.7532-4.9788-12.2713-6.0905-19.5067-4.6225-5.4967,1.1164-10.9933,2.2709-16.5375,3.1213a13.1739,13.1739,0,0,1-10.7367-2.6558c-2.5322-2.0617-2.9408-3.525-1.3873-6.366,1.1735-2.1426,2.6035-4.1379,3.8814-6.2282a11.1647,11.1647,0,0,0,1.2637-2.5322c.4514-1.52.0143-2.5132-1.8433-2.2994-6.6368.7744-12.9554-.7221-18.9746-3.221-8.68-3.6011-17.16-7.6773-25.7967-11.3829-7.3922-3.1687-15.041-5.81-23.2076-4.3707-4.3659.77-8.5609,2.6177-12.7891,4.1189-6.5371,2.3232-13.0219,4.8079-19.5589,7.14-4.4182,1.5821-8.7842,3.2021-11.81,7.074-3.145,4.0286-3.71,8.5751-1.4585,12.1192,2.2376,3.52,5.9433,3.8814,9.5776,4.2567,1.8053.1853,3.6344.1472,5.4539.171a12.77,12.77,0,0,1,9.5111,4.6653c2.3564,2.6082,2.0381,5.1688-.7649,7.2829a44.4972,44.4972,0,0,1-17.7062,7.663c-10.3519,2.2234-20.8464,3.8482-31.1461,6.2853A49.0914,49.0914,0,0,0,445.71,140.489c-8.2379,5.1213-8.7367,14.29-1.7673,21.1172,2.6557,2.5987,5.4539,5.05,8.11,7.6487a24.7429,24.7429,0,0,1,3.4016,3.929c2.6225,3.9669.3658,8.6179-4.4467,8.9029a18.1279,18.1279,0,0,1-6.2473-.9786,64.3075,64.3075,0,0,1-7.6963-3.0975c-9.9243-4.5608-20.6659,1.6675-25.1506,8.7034-4.2044,6.5941-4.955,13.4685-1.2067,20.4568,4.1285,7.6915,10.5277,12.0148,19.4165,12.3,4.5845.1473,9.169.5178,13.7487.4133,5.2449-.1235,10.3425-1.2257,13.81-5.6249a18.8214,18.8214,0,0,0,3.4681-6.6511c2.0191-7.777,6.8221-13.3639,13.0551-18.0292,5.8055-4.3469,11.8817-8.1,19.0792-9.7153a25.801,25.801,0,0,1,19.4021,2.9645c7.302,4.2614,13.0029,10.1761,18.3285,16.6229A66.5945,66.5945,0,0,0,539.4,207.418a10.4594,10.4594,0,0,0,4.0856,1.772c3.8387,1.0167,5.1974.3516,7.131-3.1593.152-.2755.304-.5511.4513-.8361,2.6272-5.15,5.7294-5.4728,9.207-.77,1.3492,1.8243,2.1806,4.0191,3.3873,5.9575a24.183,24.183,0,0,0,3.3541,4.5464c1.8813,1.8481,3.5678,1.62,5.3256-.3088.209-.2375.3895-.4988.5986-.7363,1.1354-1.3065,2.1806-2.9883,4.2662-2.2994,1.9858.66,2.1378,2.5892,2.3564,4.3137.2327,1.8053.342,3.6249.5083,5.4349.1283,1.44.2185,3.2685,2.0761,3.15,2.1473-.1425,1.7055-2.1331,1.563-3.5631-.2043-2.0381-.7506-4.0525-.8837-6.0905-.2708-4.1142,1.4585-6.0288,5.6155-6.2045a52.4544,52.4544,0,0,1,6.6321.2518c7.2829.6365,13.8152-5.9,12.8128-12.9934a15.9,15.9,0,0,0-1.3682-3.7389,6.9736,6.9736,0,0,0-.8456-1.1354c-2.8743-4.1569-3.2211-7.0312-1.1783-9.8056,2.1332-2.8932,7.1927-4.4563,10.9648-3.3968a6.7444,6.7444,0,0,1,4.5038,4.2187c.9644,2.3373,1.848,4.7127,2.8125,7.05a5.0622,5.0622,0,0,0,1.24,2.2424c1.0072.7031,2.4657,1.6105,3.3968,1.3254.8694-.266,1.7863-1.9667,1.81-3.0547a58.676,58.676,0,0,0-.6841-7.5347c-.6367-5.929,1.0879-7.4588,6.8363-5.9717,5.6439,1.4632,9.6583,5.164,13.1122,9.644a34.5232,34.5232,0,0,1,7.6725,21.7206c-.0523,8.1476-4.594,13.0124-12.7084,12.5706-6.3375-.3421-12.6228-1.8766-18.8986-3.0691-5.5774-1.0546-11.05-2.9407-16.8415-1.9858-2.8837.4751-5.1878,1.8576-6.1332,4.879-.9407,3.0216-.2566,5.1261,2.4181,6.979,4.4467,3.088,9.5776,4.0951,14.8177,4.4562,3.7769.2566,7.5917.0475,11.3876.0618,5.0311.0189,7.5965,2.1853,9.05,7.0263,1.5867,5.2734,3.4775,10.4517,5.2258,15.6823.5273,1.5678,1.1117,3.1309,1.487,4.7366,1.2352,5.2211-1.43,8.5276-6.8364,8.9647-5.1878.4181-9.8341-1.24-14.39-3.3255-5.9242-2.7127-11.9387-4.9124-18.5518-5.4112-4.537-.3421-8.1951-3.0785-11.9149-5.52-4.2757-2.8077-8.6749-5.4254-13.0409-8.0953a5.9923,5.9923,0,0,0-1.5535-.5558c-3.8339-1.0737-5.1261-.1378-5.2116,3.8766-.076,3.72.038,7.44-.1283,11.1548a6.884,6.884,0,0,1-3.6818,5.9813c-2.746,1.53-5.9765,1.2209-8.732-1.43a142.7147,142.7147,0,0,1-11.0788-11.668c-5.5394-6.689-12.5848-10.3281-21.0174-11.7534a33.0171,33.0171,0,0,1-6.7984-2.0428,10.6714,10.6714,0,0,1-6.9456-8.3613,31.0207,31.0207,0,0,0-1.1735-4.5941c-1.2209-3.4918-3.2828-5.0928-6.9741-4.7935-6.4611.5178-12.8936,1.3445-19.331,2.0808q-19.44,2.2163-38.8756,4.4943c-8.0858.9548-16.1479,1.9811-23.9011,4.7412-7.112,2.5322-12.2856,6.9267-15.0743,14.0576-1.696,4.3422-3.4633,8.67-5.4681,12.8794-3.4063,7.1736-9.0645,12.48-15.1027,17.4021-5.5727,4.5417-11.2689,8.9314-16.77,13.5539A44.4589,44.4589,0,0,0,359.64,310.79a16.4121,16.4121,0,0,0,1.1449,13.7772c4.3565,7.5538,4.29,15.1836,1.0832,23.0176-3.15,7.701-4.5227,15.63-3.0025,23.9012a54.2425,54.2425,0,0,0,6.3518,16.7654c6.1428,10.8984,14.1906,20.3286,22.9463,29.1413a92.0847,92.0847,0,0,0,12.6038,10.6607c6.461,4.499,13.7963,5.074,21.0934,2.3137,7.8958-2.9882,15.5779-6.5181,23.3976-9.7105,7.8151-3.1927,15.64-6.3709,23.5544-9.3116a25.8726,25.8726,0,0,1,7.4492-1.2448c7.0122-.3942,11.5254,3.5726,12.5611,10.789,1.1592,8.11,1.6723,8.5373,9.8674,8.6751,2.8409.0474,5.6914.1,8.5229.3468,4.8648.4275,7.5869,3.2685,7.34,8.1475-.1948,3.8482-1.2637,7.6439-1.4965,11.4921a48.024,48.024,0,0,0,.3516,11.24c.5748,3.2305,1.9,3.43,4.7935,1.9,1.468-.7791,3.1783-2.3136,4.6605-.5036,1.4253,1.7293-.1472,3.2544-1.24,4.58-4.8268,5.8578-3.9574,5.4825-.0238,11.0551,4.2377,5.9955,8.7795,11.7867,12.7891,17.9294a20.5945,20.5945,0,0,1,2.4182,17.7964c-2.4229,7.8483-5.2449,15.5684-8.0194,23.3026-2.9217,8.1572-5.91,16.433-4.95,25.16.8029,7.3305,2.95,14.5137,4.48,21.7682,1.7816,8.4136,3.7769,16.7892,5.2449,25.2552,1.81,10.4373,2.6414,21.16,7.7105,30.6662A45.0871,45.0871,0,0,0,550.18,650.908c3.7769,3.5583,9.44,3.3255,13.9483-.4561,5.3018-4.4563,10.2-9.416,15.1265-14.3046,4.936-4.8933,9.3448-10.4612,15.611-13.7107,4.0287-2.0952,8.5324-3.2591,12.7606-4.9932a57.5638,57.5638,0,0,0,8.7415-4.1521c3.3635-2.1046,3.6818-4.4325,1.848-7.91a48.5189,48.5189,0,0,1-2.879-5.9669c-1.62-4.4753-.7268-7.15,3.24-9.7676,3.0262-2,6.2235-3.7342,9.2592-5.72,2.09-1.3636,3.6249-3.4207,3.34-5.9243-.8124-7.1356,2.0856-12.7606,6.062-18.39,8.1428-11.53,14.4-24.1719,19.8583-37.1511,6.4943-15.44,12.6038-31.0415,18.8131-46.6051,8.1761-20.4759,16.3759-40.9469,24.362-61.4989,2.1663-5.5726,5.8909-10.0431,9.06-14.9364a47.5067,47.5067,0,0,0,4.1522-7.6725c1.1117-2.7079-.2281-4.8125-3.0548-5.5964-3.3825-.9359-6.57-.1235-9.7438,1.0166-1.7863.6414-3.5868,1.259-5.4207,1.72-3.5678.8931-6.87.3183-9.264-2.6414-3.3683-4.1665-6.5608-8.4753-9.7866-12.751-4.2377-5.606-8.3091-11.345-12.6893-16.8321-4.1617-5.2116-7.1689-10.7985-7.264-17.6111-.1472-10.5847-4.9408-19.45-10.2094-28.1721-4.7508-7.8626-8.1428-16.2287-9.2355-25.431-.9882-8.3138,2.784-11.3591,10.6227-8.49,4.6273,1.6913,7.6916,5.169,10.1144,9.2641,4.1,6.9409,5.8245,14.68,7.0977,22.4949,2.0571,12.6229,3.6249,25.3359,5.9,37.916,1.2589,6.9646,3.0643,13.92,7.2639,19.901a15.2142,15.2142,0,0,0,12.29,6.9741,5.8866,5.8866,0,0,0,5.929-3.0642,15.6321,15.6321,0,0,0,1.2114-2.2994,13.0651,13.0651,0,0,1,9.53-8.7034,31.4915,31.4915,0,0,0,14.3426-7.4777,27.137,27.137,0,0,0,3.5536-35.6356,28.3627,28.3627,0,0,0-15.5969-10.9078,75.7006,75.7006,0,0,1-11.43-4.49,10.7506,10.7506,0,0,1-5.6487-7.5537c-1.1544-5.1878,1.9621-9.2878,7.2687-9.7058,4.8458-.3849,8.8032,1.6342,12.238,4.7507a64.1844,64.1844,0,0,0,15.8106,10.732,37.0144,37.0144,0,0,1,15.3213,13.7725,60.06,60.06,0,0,1,8.3281,19.2739c3.088,13.478,5.81,27.0415,8.6939,40.5717a33.5347,33.5347,0,0,0,.8789,3.6865,45.145,45.145,0,0,1,2.0333,9.34q.0286-2.1306.0286-4.2709A379.9322,379.9322,0,0,0,660.431,121.7852Zm40.5052,122.9169a5.9708,5.9708,0,0,1-5.986,2.5084c-7.2164-1.2305-14.5849-10.5135-14.1051-17.7774.0618-.9454.1045-1.8956.1853-2.841a11.0507,11.0507,0,0,0-4.803-10.656c-5.6915-4.1284-9.7059-9.5111-11.0694-16.5422-.6746-3.4775-.551-6.95,1.5108-10.0622a6.2713,6.2713,0,0,1,8.0763-2.4466c2.917,1.2875,3.1545,2.5464,1.2685,4.2187,1.5392,2.2518,3.25,4.1237,4.2187,6.3233,1.1924,2.7127.5036,5.3969-1.5488,7.6915-1.772,1.9858-1.7958,2.993.3468,4.4515a58.5653,58.5653,0,0,0,8.3994,4.803c4.0619,1.8718,8.0431,3.7674,10.8365,7.4112a12.8163,12.8163,0,0,1,1.9764,3.4729c1.1259,3.297.6793,4.0856-2.5465,5.3351-2.2518.8741-2.8789,2.1046-1.7007,4.1854a21.7693,21.7693,0,0,0,3.2875,3.9812C701.2355,240.8207,701.8911,242.9728,700.9362,244.7021Zm-460.227,245.677c-4.499-3.4775-9.2925-6.57-13.8533-9.9671a27.674,27.674,0,0,1-5.0216-4.6606c-2.5083-3.1069-5.72-3.7626-9.35-3.2162-3.354.5084-6.6748,1.24-10.0194,1.82-4.3469.7507-8.3328.4372-12.1-2.5037-1.7056-1.3348-4.39-1.7625-6.6748-1.9287-3.5346-.2661-7.1072.1426-10.6608.0665a13.66,13.66,0,0,1-4.1189-.95c-2.974-1.05-4.8411-2.9359-5.2354-6.3279-.4228-3.6582-2.47-4.3423-5.3684-2.0572-.6746.5321-1.2209,1.23-1.8765,1.8006-.95.8219-1.8386,1.9287-2.955,2.2946-1.0309.3325-2.3231-.1616-3.5013-.29.3705-1.0262.4418-2.4419,1.1687-3.0025a43.0253,43.0253,0,0,1,7.5014-4.9171c5.0454-2.4276,6.8934-6.5085,6.1618-11.6536-1.1735-8.2759-4.3707-15.7108-11.15-21.008-4.2187-3.297-9.4683-4.176-14.58-5.2876q-6.1213-1.3256-12.1478-3.0975a19.0489,19.0489,0,0,1-11.6014-9.2545c-6.8078-12.4755-18.0862-18.29-31.1081-21.7348-2.4466-.6462-4.898-1.2733-7.3352-1.9479-5.1831-1.4394-9.63-.1519-13.0409,3.9337-3.392,4.0619-7.7627,5.4776-12.7938,5.6249a17.4881,17.4881,0,0,0-3.7579.4656,17.6857,17.6857,0,0,0-3.7578,1.392c-2.1,1.0641-2.7317.9073-3.7056-1.3018a44.5049,44.5049,0,0,1-3.8482-17.231,43.7877,43.7877,0,0,0-.1948-4.7413c-.4846-3.7864-1.6627-7.14-5.1736-9.3971-3.9194-2.5131-4.5227-5.6106-2.8409-11.3258A97.4254,97.4254,0,0,0,31.0051,337.86a27.3283,27.3283,0,0,0-.3611-9.0835c-.4371-2.3706-2.2044-2.7459-4.1094-1.1639a17.95,17.95,0,0,0-6.3423,10.0526,22.6628,22.6628,0,0,1-5.2021,10.238c-3.1355,3.5631-5.6772,3.1355-7.1214-1.2827-2.19-6.7082-1.8908-13.5873-1.0072-20.4521a81.4017,81.4017,0,0,1,10.2427-30.8421,38.9344,38.9344,0,0,1,5.63-7.25c3.1687-3.2875,5.7959-3.0832,8.7651.3563a14.2551,14.2551,0,0,1,1.4015,2.4562c.3706-.2.7364-.4038,1.1022-.6034.6413-1.5725,1.3967-3.1118,1.9-4.727,1.7626-5.6819,5.5727-8.6939,11.4494-9.5586,5.15-.7553,10.5705-1.3777,14.3378-5.4824a46.0565,46.0565,0,0,0,6.2236-8.8745c2.6509-4.822,5.9052-8.95,10.6607-11.82a20.73,20.73,0,0,0,2.19-1.8054c2.822-2.2946,3.5536-5.0168,2.0571-8.4278-2.29-5.2259-1.1592-9.8246,3.2305-13.383a36.3509,36.3509,0,0,1,6.8364-4.1284c3.04-1.506,6.309-2.5607,9.3163-4.1237,5.0168-2.6082,8.1618-7.0549,11.05-11.7582,3.9194-6.38,7.796-12.8033,12.1382-18.8938,1.6628-2.3326,4.4373-3.9574,6.9172-5.587a4.1047,4.1047,0,0,1,5.4538.6889c.9027,1.0785.8172,2.9835,1.1592,4.5228a1.0824,1.0824,0,0,1-.0855.4608c-1.6057,5.5014,1.7056,7.15,6.2853,6.8173a21.3309,21.3309,0,0,0,17.1076-10.49,8.075,8.075,0,0,0,.7934-1.72c1.4774-4.39-.5131-6.8032-5.1119-6.28a28.418,28.418,0,0,1-4.4847.2518c-2.7175-.1331-3.8149-1.4063-3.6486-4.1523.0712-1.1686.5273-2.3184.5938-3.4918.0475-.85.0238-2.1426-.475-2.4751a3.1243,3.1243,0,0,0-2.76-.1473,60.0059,60.0059,0,0,0-5.3257,3.8861c-.86.6461-1.7245,1.278-2.6129,1.9383-1.6865-3.1592.0475-8.6749,3.259-10.2141,3.7721-1.8054,7.5823-2.5322,11.8817-1.0024,5.0311,1.7862,10.2665,3.2352,15.7916,2.4181a2.5792,2.5792,0,0,1,1.9716.8171c3.8956,4.6368,9.0027,5.872,14.3331,3.9194,4.5987-1.6865,8.7509-4.58,13.0789-6.9789a33.4354,33.4354,0,0,0,3.3873-2.1853c1.5488-1.1164,1.3207-2.3517-.2281-3.0975a6.8871,6.8871,0,0,0-3.8148-.8314,76.4894,76.4894,0,0,1-12.3853.7648c-4.9883.0286-10.4137,1.3208-13.9625,5.872a4.589,4.589,0,0,1-.67.5892c-3.2163-2.0191-3.8814-4.0335-1.5488-6.7367a19.8757,19.8757,0,0,1,6.4469-4.9788c4.4324-2.0571,9.15-3.487,13.7155-5.2591a34.5931,34.5931,0,0,0,12.1049-8.5467c1.7768-1.8148,1.5346-3.3255-.8123-4.1854-2.1094-.7744-4.47-.8314-6.6559-1.4395a13.1475,13.1475,0,0,1-4.898-2.0714c-1.9669-1.6437-1.5393-3.9858-.5321-6.1142.8409-1.7863,1.848-3.4918,2.6557-5.2876.7126-1.5962.8789-3.2923-.48-4.651-1.4109-1.411-3.0262-.6651-4.38.0855-3.3873,1.8718-6.6036,4.0571-10.0479,5.8055a15.0636,15.0636,0,0,1-5.4349,1.3112c-2.0618.1852-3.2638-.9644-3.1973-3.1688.0428-1.4205.1426-2.8457.1188-4.2662-.0428-2.4372-1.2637-3.6534-3.71-3.53-3.1878.1616-5.62,1.9954-7.81,4.0715a35.3578,35.3578,0,0,0-3.9859,4.67,16.7775,16.7775,0,0,1-7.8768,5.4919c-11.1311,4.2235-18.8891,12.3-24.7421,22.2052-3.0215,5.1117-4.898,10.903-7.2972,16.3806a28.8056,28.8056,0,0,1-2.0713,4.49c-.47.7031-1.8481,1.4774-2.4467,1.2494a3.2,3.2,0,0,1-1.8052-2.38,17.4212,17.4212,0,0,1,1.3159-4.9455c.6794-1.8481,1.7721-3.5679,2.29-5.4491.9216-3.3589-.9027-5.0644-4.2472-4.195-1.3017.3373-2.5749.7981-3.8862,1.0642a7.3243,7.3243,0,0,1-8.6654-4.8744c-1.2019-3.4348-.0427-6.2187,3.6866-8.2188a273.3761,273.3761,0,0,0,32.8374-20.3191c5.8577-4.3042,11.4922-8.9077,17.1836-13.44,1.71-1.3587,2.7934-3.0833,1.7055-5.3779-1.0262-2.1521-3.5868-3.6961-5.8814-3.0263a22.8494,22.8494,0,0,0-7.302,3.1831c-7.5775,5.6866-14.8367,11.8009-22.3952,17.5113-4.8363,3.6581-9.9909,6.8982-15.0172,10.3044a3.6736,3.6736,0,0,1-1.0214.3279q8.7153-10.0551,18.0767-19.3452A380.047,380.047,0,0,0,.8709,357.0818a3.0971,3.0971,0,0,1,2.3421-2.2994c.8266-.2518,1.4822-1.0594,2.6034-1.91,1.2162,3.2733,2.3279,6.2662,3.44,9.2687.2185.5939.4465,1.183.6176,1.7911a7.5444,7.5444,0,0,0,5.0216,5.5726c2.3421.9074,4.5085,3.2733,5.8529,5.5253,2.2994,3.8385,3.9147,8.0858,5.777,12.1809A78,78,0,0,0,44.44,412.3191a6.0718,6.0718,0,0,1,1.7577,3.43c1.126,9.2117.8742,18.3141-2.5511,27.1175a47.1567,47.1567,0,0,0-1.5678,5.2209,8.4209,8.4209,0,0,0,2.5749,9.0409c2.5132,2.2518,2.708,3.7958.8267,6.5988-1.05,1.5678-2.3469,2.9787-3.5251,4.4609-2.3184,2.9123-3.107,6.1951-1.316,9.5063,1.9716,3.6535,3.9527,7.4778,6.7271,10.4945,8.4944,9.2118,13.0979,20.3523,17.1741,31.9015,2.7649,7.8246,5.7247,15.6539,11.1833,22.0959,4.233,4.9978,8.694,9.8245,13.269,14.5136a65.5245,65.5245,0,0,1,15.9388,27.3882c2.4182,8.0194,4.5323,16.129,7.0027,24.134a175.3427,175.3427,0,0,0,12.0195,28.8326,162.3226,162.3226,0,0,0,22.9177,33.6117,241.6861,241.6861,0,0,0,18.6136,18.566,190.1837,190.1837,0,0,0,15.9578,12.257c3.2923,2.39,7.25,3.1118,11.2451,3.2115,3.05.076,3.5869-1.0689,2.1569-3.7246-2.5845-4.7935-6.8839-7.6915-11.2736-10.5752-4.67-3.069-9.6394-5.8767-13.6728-9.6583-5.9955-5.625-7.0786-12.9982-4.9313-20.8084a6.9769,6.9769,0,0,1,5.5632-5.2592c2.3184-.4941,4.6557-.8978,6.9789-1.3681,1.867-.38,2.19-1.4016,1.05-2.8553-.8741-1.1212-1.8908-2.1284-2.7555-3.25a11.2005,11.2005,0,0,1-2.0428-3.1593,4.4372,4.4372,0,0,1,.1948-3.316c.29-.4656,2.01-.29,2.9882-.0333a32.61,32.61,0,0,1,4.6558,1.7578,4.0516,4.0516,0,0,0,4.7555-.9835c3.2591-3.0214,4.6035-6.9788,5.1641-11.1786.7887-5.8766,1.221-11.7961,1.9336-17.6824,1.0594-8.76,5.8007-14.219,14.5516-16.19a45.6928,45.6928,0,0,0,9.4541-3.0168c6.3518-3.0025,9.7913-8.5609,10.9648-15.1978a202.98,202.98,0,0,0,2.47-21.388,96.444,96.444,0,0,1,13.24-43.3366c.2423-.4038.5179-.7933.7791-1.1877C251.0564,503.173,247.75,495.8283,240.7092,490.3791Z"/><path class="cls-2" d="M404.8077,22.42q7.6848.4994,15.3694,1.0018a4.1437,4.1437,0,0,1,.9376.14c1.8443.5649,4.17.6223,4.4531,3.1864.2705,2.4513-1.7933,3.2139-3.5209,3.8639-4.0591,1.5273-8.2054,2.8211-12.3,4.2573-3.7977,1.3321-7.5023,2.9956-11.3781,4.0213-4.3222,1.1439-8.8179,1.6155-13.1875,2.6036a41.9238,41.9238,0,0,0-8.94,2.7506c-2.49,1.1977-2.3747,2.6867-.0469,4.2176,2.2358,1.47,4.6374,2.6864,6.9356,4.0651a19.0586,19.0586,0,0,1,2.28,1.6931,6.1332,6.1332,0,0,1,1.9929,6.4439c-.5746,2.5047-2.8519,3.4483-5.1109,3.51-4.5743.1255-9.1654.0237-13.7371-.22-8.4365-.449-16.8576-1.2334-25.2974-1.561-6.3463-.2463-11.5866,2.8942-16.402,6.6088-5.9184,4.5655-12.31,7.3924-19.9623,6.526-8.6961-.9845-14.1271,4.3469-19.308,10.0713-4.0775,4.5051-8.5088,8.5374-14.3932,10.4734-6.1143,2.0115-12.0677,2.08-16.9744-2.902-3.255-3.3048-4.7213-7.48-3.526-11.9678a10.8553,10.8553,0,0,1,3.984-5.546c2.1842-1.5606,5-2.263,7.5795-3.238a11.7616,11.7616,0,0,0,6.5507-5.1583c1.7328-3.0893,1.152-5.8893-1.8947-7.746a8.1031,8.1031,0,0,1-3.8111-5.15c-1.0975-4.0529-3.1674-5.1749-7.33-4.0578-3.5032.94-6.95,2.0893-10.4291,3.1221a2.93,2.93,0,0,1-1.6169.2245c-.9747-.3561-2.2868-.74-2.6645-1.5054a3.08,3.08,0,0,1,.549-2.9,45.8429,45.8429,0,0,1,8.2134-5.89c6.975-3.5026,13.94-7.26,21.3169-9.6594a97.9661,97.9661,0,0,1,21.7935-4.198c14.6448-1.2559,29.36-1.6658,44.0352-2.601,17.3616-1.1065,34.7073-2.4635,52.0692-3.5668,4.565-.29,9.1641-.0437,13.7475-.0437Z"/><path class="cls-2" d="M672.8115,583.87c-1.8159-.0827-3.6476-.0418-5.4445-.2725-4.5556-.585-6.535-3.4981-5.7011-8.0262a17.3188,17.3188,0,0,1,4.8028-8.7955,80.1612,80.1612,0,0,0,5.5622-6.4209,10.3445,10.3445,0,0,0,1.4063-10.5567c-2.7712-6.9331-.87-9.8428,5.9292-11.6827,6.4581-1.7476,9.8933-6.1082,11.1235-12.4841.4485-2.3242.886-4.6542,1.4559-6.95a7.1084,7.1084,0,0,1,1.297-3.0023c3.6212-4.0285,4.7363-3.548,7.6119-.0777,3.414,4.12,5.1292,8.7718,3.508,14.0712a7.5385,7.5385,0,0,1-2.9346,4.0394c-6.951,4.1044-9.08,10.5811-9.44,18.0362-.2594,5.3656-.2827,10.7483-.72,16.0982-.78,9.5586-6.048,16.1061-16.5567,15.9749-.6325-.0079-1.2651-.001-1.8976-.001Z"/><path class="cls-2" d="M189.31,105.2519a8.0982,8.0982,0,0,1-2.1386.7432c-2.5.0767-7.0273-3.5274-7.6665-5.99a7.5227,7.5227,0,0,1,3.7907-8.2238,16.3624,16.3624,0,0,1,3.8675-.9491c3.7958-.8275,4.8175-1.2959,4.7936-5.0862a8.5719,8.5719,0,0,1,4.1453-7.3508c5.0808-3.2944,10.5744-4.5174,16.44-2.5175,3.507,1.1958,5.5207,6.3545,4.0508,9.7528a3.22,3.22,0,0,1-3.9745,2.1355q-.6962-.1454-1.3905-.3006c-4.7053-1.0607-6.3934.09-7.083,4.8977-.2909,2.0287-.3729,4.0932-.761,6.1a3.8812,3.8812,0,0,1-4.2291,3.366c-2.5174-.0818-5.0249-.4618-7.5376-.7015a5.8565,5.8565,0,0,0-2.102-.0963,12.209,12.209,0,0,0-2.3466,1.278c.4832.7007.9631,1.4037,1.4517,2.1007C188.7492,104.5947,188.9052,104.7607,189.31,105.2519Z"/><path class="cls-2" d="M363.2611,87.1131c-2.7638-.4731-4.9687-.7092-7.0831-1.2805-.87-.2352-2.139-1.17-2.1633-1.8255a3.8721,3.8721,0,0,1,1.5879-2.6033,10.9931,10.9931,0,0,1,3.41-1.5452c4.943-1.5645,9.8725-3.1951,14.8832-4.5115a14.2308,14.2308,0,0,1,6.2188-.2919c2.996.6048,3.812,3.2419,1.5508,5.2122a22.0531,22.0531,0,0,1-7.2193,4.1836A109.2253,109.2253,0,0,1,363.2611,87.1131Z"/></svg>